<?xml version="1.0" encoding="UTF-8" standalone="no"?>
<!-- Generator: Adobe Illustrator 21.1.0, SVG Export Plug-In . SVG Version: 6.00 Build 0)  -->

<svg
   xmlns:dc="http://purl.org/dc/elements/1.1/"
   xmlns:cc="http://creativecommons.org/ns#"
   xmlns:rdf="http://www.w3.org/1999/02/22-rdf-syntax-ns#"
   xmlns:svg="http://www.w3.org/2000/svg"
   xmlns="http://www.w3.org/2000/svg"
   xmlns:sodipodi="http://sodipodi.sourceforge.net/DTD/sodipodi-0.dtd"
   xmlns:inkscape="http://www.inkscape.org/namespaces/inkscape"
   version="1.1"
   id="Слой_1"
   x="0px"
   y="0px"
   viewBox="0 0 69.900002 70.010551"
   xml:space="preserve"
   sodipodi:docname="etu-logo-blue.svg"
   width="69.900002"
   height="70.010551"
   inkscape:version="0.92.3 (2405546, 2018-03-11)"><metadata
   id="metadata93"><rdf:RDF><cc:Work
       rdf:about=""><dc:format>image/svg+xml</dc:format><dc:type
         rdf:resource="http://purl.org/dc/dcmitype/StillImage" /><dc:title></dc:title></cc:Work></rdf:RDF></metadata><defs
   id="defs91" /><sodipodi:namedview
   pagecolor="#ffffff"
   bordercolor="#666666"
   borderopacity="1"
   objecttolerance="10"
   gridtolerance="10"
   guidetolerance="10"
   inkscape:pageopacity="0"
   inkscape:pageshadow="2"
   inkscape:window-width="1920"
   inkscape:window-height="1001"
   id="namedview89"
   showgrid="false"
   inkscape:zoom="7.2753004"
   inkscape:cx="-25.904278"
   inkscape:cy="31.723253"
   inkscape:window-x="-9"
   inkscape:window-y="-9"
   inkscape:window-maximized="1"
   inkscape:current-layer="Слой_1" />
<style
   type="text/css"
   id="style2">
	.st0{fill:#05336E;}
</style>





































<path
   class="st0"
   d="m 41.1,38.1 c 0.1,0.9 0.1,2 0.1,4.6 0,2.9 0,4 -0.1,5 h 2.1 c -0.1,-1 -0.1,-2.1 -0.1,-5 0,-2.7 0,-3.7 0.1,-4.6 z"
   id="path78"
   inkscape:connector-curvature="0"
   style="fill:#000038;fill-opacity:1" />
<path
   class="st0"
   d="m 45.1,45.1 c 0,1.7 1.3,2.7 3.5,2.7 2.3,0 3.6,-1 3.6,-2.8 0,-1.2 -0.7,-2 -1.9,-2.4 1,-0.4 1.6,-1.1 1.6,-2.2 0,-1.6 -1.2,-2.5 -3.2,-2.5 -2.1,0 -3.3,1 -3.3,2.6 0,1 0.6,1.8 1.6,2.2 -1.2,0.4 -1.9,1.2 -1.9,2.4 z m 3.5,-6.3 c 0.9,0 1.4,0.7 1.4,1.8 0,1.1 -0.5,1.7 -1.3,1.7 -0.9,0 -1.4,-0.7 -1.4,-1.8 0,-1.1 0.5,-1.7 1.3,-1.7 z m 0,4.4 c 1,0 1.6,0.7 1.6,2 0,1.2 -0.6,1.9 -1.6,1.9 -1,0 -1.6,-0.7 -1.6,-2 0.1,-1.2 0.7,-1.9 1.6,-1.9 z"
   id="path80"
   inkscape:connector-curvature="0"
   style="fill:#000038;fill-opacity:1" />
<path
   class="st0"
   d="m 53.6,45.1 c 0,1.7 1.3,2.7 3.5,2.7 2.3,0 3.6,-1 3.6,-2.8 0,-1.2 -0.7,-2 -1.9,-2.4 1,-0.4 1.6,-1.1 1.6,-2.2 0,-1.6 -1.2,-2.5 -3.2,-2.5 -2.1,0 -3.3,1 -3.3,2.6 0,1 0.6,1.8 1.6,2.2 -1.2,0.4 -1.9,1.2 -1.9,2.4 z m 3.6,-6.3 c 0.9,0 1.4,0.7 1.4,1.8 0,1.1 -0.5,1.7 -1.3,1.7 -0.9,0 -1.4,-0.7 -1.4,-1.8 -0.1,-1.1 0.4,-1.7 1.3,-1.7 z m 0,4.4 c 1,0 1.6,0.7 1.6,2 0,1.2 -0.6,1.9 -1.6,1.9 -1,0 -1.6,-0.7 -1.6,-2 0,-1.2 0.6,-1.9 1.6,-1.9 z"
   id="path82"
   inkscape:connector-curvature="0"
   style="fill:#000038;fill-opacity:1" />
<path
   class="st0"
   d="m 66.3,41.5 c -1.1,0 -1.8,0.5 -2.2,1 0.1,-2.2 0.7,-3.7 2.2,-3.7 1.2,0 1.9,1.2 1.9,1.2 v -1.7 c 0,0 -0.7,-0.3 -2,-0.3 -2.4,0 -4.2,1.9 -4.2,5.2 0,3.3 1.4,4.8 3.7,4.8 2.1,0 3.4,-1.3 3.4,-3.4 0.1,-2 -1,-3.1 -2.8,-3.1 z m -0.4,5.4 c -1,0 -1.6,-0.8 -1.7,-3.4 0.3,-0.4 0.9,-0.8 1.6,-0.8 1,0 1.5,0.7 1.5,2 0,1.4 -0.6,2.2 -1.4,2.2 z"
   id="path84"
   inkscape:connector-curvature="0"
   style="fill:#000038;fill-opacity:1" />
<path
   class="st0"
   d="M 59.6,10.2 C 46,-3.4 23.9,-3.4 10.3,10.2 3.6,16.8 0.2,25.4 0,34.1 v 0 0.1 c 0,0.4 0,0.7 0,1.1 0,-0.2 0,-0.3 0,-0.5 0,3 0.3,6 1.1,9 C 6,62.5 25,73.7 43.7,68.9 52.5,66.6 59.6,61.2 64.2,54.1 H 64.1 C 59.9,60.1 53.7,64.7 46,66.7 29,71.1 11.6,60.9 7.2,43.9 6.4,40.6 6.1,37.4 6.2,34.2 h 1.4 c -0.1,2.6 0.2,5.3 0.9,7.9 4,15.3 19.6,24.4 34.8,20.5 5.6,-1.4 10.3,-4.5 13.9,-8.5 v 0 c -4.6,4.3 -10.7,7 -17.5,7 -7.3,0 -13.9,-3.1 -18.6,-8 C 21,53 20.9,52.9 20.9,52.9 20.8,52.8 20.7,52.7 20.7,52.6 18.1,49.7 16,46.1 15,42 14.3,39.4 14.1,36.8 14.3,34.2 h 1.6 c -0.1,2.2 0.1,4.4 0.7,6.6 3,11.7 15,18.8 26.7,15.7 2,-0.5 3.9,-1.3 5.6,-2.4 h -0.4 c -2.3,1 -4.9,1.6 -7.5,1.6 -10.5,0 -19,-8.5 -19,-19 0,-0.9 0.1,-1.7 0.2,-2.5 h 5 20.5 v 0 h 6.7 v 0 h 9.4 6.1 v 0 C 69.6,25.5 66.2,16.8 59.6,10.2 Z M 11.1,33.1 c 0.7,-3.5 2.3,-6.9 5,-9.6 7.2,-7.2 19,-7.2 26.2,0 1.9,1.9 3.3,4.1 4.1,6.4 z M 47.9,20.7 c -8.6,-8.6 -22.4,-8.6 -31,0 -3.5,3.5 -5.5,7.9 -6.1,12.5 L 5.1,33.7 C 5.8,28.3 8.2,23 12.4,18.9 c 10,-10 26.2,-10 36.2,0 3,3 5.1,6.5 6.3,10.3 l -1.6,0.1 c -1.1,-3.1 -2.9,-6.1 -5.4,-8.6 z m 13.6,7.9 C 60.3,23.8 57.8,19.3 54,15.5 42.8,4.3 24.6,4.3 13.3,15.5 8.2,20.6 5.5,27.1 5,33.7 L 1.8,34 0,34.1 c 0.4,-7.6 3.5,-15 9.3,-20.8 12.4,-12.5 32.6,-12.5 45.1,0 4.3,4.3 7.1,9.6 8.4,15.2 z"
   id="path86"
   inkscape:connector-curvature="0"
   style="fill:#000038;fill-opacity:1" />
</svg>